<svg xmlns="http://www.w3.org/2000/svg" xmlns:xlink="http://www.w3.org/1999/xlink" width="500" zoomAndPan="magnify" viewBox="0 0 375 172.499995" height="230" preserveAspectRatio="xMidYMid meet" version="1.0"><defs><clipPath id="780bd8d475"><path d="M 63.050781 0 L 230.882812 0 L 230.882812 93.644531 L 63.050781 93.644531 Z M 63.050781 0 " clip-rule="nonzero"/></clipPath><clipPath id="595010d95a"><path d="M 1.257812 25.441406 L 374.289062 25.441406 L 374.289062 129 L 1.257812 129 Z M 1.257812 25.441406 " clip-rule="nonzero"/></clipPath><clipPath id="f3a9cde63e"><path d="M 1.257812 75 L 374.289062 75 L 374.289062 136.515625 L 1.257812 136.515625 Z M 1.257812 75 " clip-rule="nonzero"/></clipPath><clipPath id="8f88f1bf43"><path d="M 1.257812 68 L 149.820312 68 L 149.820312 130.929688 L 1.257812 130.929688 Z M 1.257812 68 " clip-rule="nonzero"/></clipPath><clipPath id="1f7271632a"><path d="M 1.257812 93 L 79 93 L 79 126.277344 L 1.257812 126.277344 Z M 1.257812 93 " clip-rule="nonzero"/></clipPath><clipPath id="8d17cd1f8b"><path d="M 273 112 L 344 112 L 344 161.652344 L 273 161.652344 Z M 273 112 " clip-rule="nonzero"/></clipPath><clipPath id="ba91b48a0a"><path d="M 1.257812 75.074219 L 374.289062 75.074219 L 374.289062 136.515625 L 1.257812 136.515625 Z M 1.257812 75.074219 " clip-rule="nonzero"/></clipPath></defs><g clip-path="url(#780bd8d475)"><path fill="#ee3ec9" d="M 230.882812 83.914062 C 230.882812 85.289062 230.847656 86.660156 230.78125 88.03125 C 230.710938 89.40625 230.613281 90.773438 230.476562 92.140625 C 230.34375 93.507812 230.175781 94.871094 229.972656 96.226562 C 229.769531 97.585938 229.535156 98.9375 229.269531 100.285156 C 229 101.632812 228.699219 102.972656 228.367188 104.304688 C 228.03125 105.636719 227.667969 106.960938 227.269531 108.273438 C 226.867188 109.589844 226.4375 110.890625 225.976562 112.183594 C 225.511719 113.476562 225.019531 114.757812 224.492188 116.027344 C 223.96875 117.296875 223.410156 118.550781 222.824219 119.792969 C 222.238281 121.035156 221.621094 122.261719 220.972656 123.472656 C 220.324219 124.683594 219.648438 125.878906 218.941406 127.054688 C 218.234375 128.234375 217.5 129.394531 216.738281 130.535156 C 215.976562 131.679688 215.183594 132.800781 214.367188 133.902344 C 213.550781 135.007812 212.703125 136.089844 211.832031 137.152344 C 210.960938 138.210938 210.066406 139.25 209.144531 140.269531 C 208.21875 141.285156 207.273438 142.28125 206.304688 143.253906 C 205.332031 144.222656 204.335938 145.171875 203.320312 146.09375 C 202.300781 147.015625 201.261719 147.910156 200.199219 148.78125 C 199.140625 149.652344 198.058594 150.5 196.953125 151.316406 C 195.851562 152.132812 194.726562 152.925781 193.585938 153.6875 C 192.445312 154.449219 191.285156 155.1875 190.105469 155.890625 C 188.929688 156.597656 187.734375 157.273438 186.523438 157.921875 C 185.3125 158.570312 184.085938 159.1875 182.84375 159.773438 C 181.601562 160.359375 180.347656 160.917969 179.078125 161.441406 C 177.808594 161.96875 176.527344 162.460938 175.234375 162.925781 C 173.941406 163.386719 172.640625 163.820312 171.324219 164.21875 C 170.011719 164.617188 168.6875 164.980469 167.355469 165.316406 C 166.023438 165.648438 164.683594 165.949219 163.335938 166.21875 C 161.988281 166.484375 160.636719 166.71875 159.277344 166.921875 C 157.921875 167.125 156.558594 167.292969 155.191406 167.425781 C 153.824219 167.5625 152.453125 167.660156 151.082031 167.730469 C 149.710938 167.796875 148.339844 167.832031 146.964844 167.832031 C 145.59375 167.832031 144.21875 167.796875 142.847656 167.730469 C 141.476562 167.660156 140.105469 167.5625 138.742188 167.425781 C 137.375 167.292969 136.011719 167.125 134.652344 166.921875 C 133.292969 166.71875 131.941406 166.484375 130.59375 166.21875 C 129.246094 165.949219 127.910156 165.648438 126.574219 165.316406 C 125.242188 164.980469 123.921875 164.617188 122.605469 164.21875 C 121.292969 163.820312 119.988281 163.386719 118.695312 162.925781 C 117.402344 162.460938 116.121094 161.96875 114.851562 161.441406 C 113.585938 160.917969 112.328125 160.359375 111.085938 159.773438 C 109.847656 159.1875 108.621094 158.570312 107.410156 157.921875 C 106.195312 157.273438 105.003906 156.597656 103.824219 155.890625 C 102.648438 155.1875 101.488281 154.449219 100.34375 153.6875 C 99.203125 152.925781 98.082031 152.132812 96.976562 151.316406 C 95.875 150.5 94.792969 149.652344 93.730469 148.78125 C 92.667969 147.910156 91.628906 147.015625 90.613281 146.09375 C 89.59375 145.171875 88.601562 144.222656 87.628906 143.253906 C 86.65625 142.28125 85.710938 141.285156 84.789062 140.269531 C 83.867188 139.25 82.96875 138.210938 82.097656 137.152344 C 81.226562 136.089844 80.382812 135.007812 79.5625 133.902344 C 78.746094 132.800781 77.957031 131.679688 77.191406 130.535156 C 76.429688 129.394531 75.695312 128.234375 74.988281 127.054688 C 74.285156 125.878906 73.605469 124.683594 72.960938 123.472656 C 72.3125 122.261719 71.695312 121.035156 71.105469 119.792969 C 70.519531 118.550781 69.964844 117.296875 69.4375 116.027344 C 68.914062 114.757812 68.417969 113.476562 67.957031 112.183594 C 67.492188 110.890625 67.0625 109.589844 66.664062 108.273438 C 66.265625 106.960938 65.898438 105.636719 65.566406 104.304688 C 65.230469 102.972656 64.929688 101.632812 64.664062 100.285156 C 64.394531 98.9375 64.160156 97.585938 63.957031 96.226562 C 63.757812 94.871094 63.589844 93.507812 63.453125 92.140625 C 63.320312 90.773438 63.21875 89.40625 63.152344 88.03125 C 63.085938 86.660156 63.050781 85.289062 63.050781 83.914062 C 63.050781 82.542969 63.085938 81.167969 63.152344 79.796875 C 63.21875 78.425781 63.320312 77.058594 63.453125 75.691406 C 63.589844 74.324219 63.757812 72.960938 63.957031 71.601562 C 64.160156 70.242188 64.394531 68.890625 64.664062 67.542969 C 64.929688 66.195312 65.230469 64.859375 65.566406 63.527344 C 65.898438 62.191406 66.265625 60.871094 66.664062 59.554688 C 67.0625 58.242188 67.492188 56.9375 67.957031 55.644531 C 68.417969 54.351562 68.914062 53.070312 69.4375 51.800781 C 69.964844 50.535156 70.519531 49.277344 71.105469 48.035156 C 71.695312 46.796875 72.3125 45.570312 72.960938 44.359375 C 73.605469 43.148438 74.285156 41.953125 74.988281 40.773438 C 75.695312 39.597656 76.429688 38.4375 77.191406 37.292969 C 77.957031 36.152344 78.746094 35.03125 79.5625 33.925781 C 80.382812 32.824219 81.226562 31.742188 82.097656 30.679688 C 82.96875 29.617188 83.867188 28.578125 84.789062 27.5625 C 85.710938 26.542969 86.65625 25.550781 87.628906 24.578125 C 88.601562 23.605469 89.59375 22.660156 90.613281 21.738281 C 91.628906 20.816406 92.667969 19.917969 93.730469 19.046875 C 94.792969 18.175781 95.875 17.332031 96.976562 16.515625 C 98.082031 15.695312 99.203125 14.90625 100.34375 14.140625 C 101.488281 13.378906 102.648438 12.644531 103.824219 11.9375 C 105.003906 11.234375 106.195312 10.554688 107.410156 9.910156 C 108.621094 9.261719 109.847656 8.644531 111.085938 8.058594 C 112.328125 7.46875 113.585938 6.914062 114.851562 6.386719 C 116.121094 5.863281 117.402344 5.367188 118.695312 4.90625 C 119.988281 4.441406 121.292969 4.011719 122.605469 3.613281 C 123.921875 3.214844 125.242188 2.847656 126.574219 2.515625 C 127.910156 2.179688 129.246094 1.878906 130.59375 1.613281 C 131.941406 1.34375 133.292969 1.109375 134.652344 0.910156 C 136.011719 0.707031 137.375 0.539062 138.742188 0.402344 C 140.105469 0.269531 141.476562 0.167969 142.847656 0.101562 C 144.21875 0.0351562 145.59375 0 146.964844 0 C 148.339844 0 149.710938 0.0351562 151.082031 0.101562 C 152.453125 0.167969 153.824219 0.269531 155.191406 0.402344 C 156.558594 0.539062 157.921875 0.707031 159.277344 0.910156 C 160.636719 1.109375 161.988281 1.34375 163.335938 1.613281 C 164.683594 1.878906 166.023438 2.179688 167.355469 2.515625 C 168.6875 2.847656 170.011719 3.214844 171.324219 3.613281 C 172.640625 4.011719 173.941406 4.441406 175.234375 4.90625 C 176.527344 5.367188 177.808594 5.863281 179.078125 6.386719 C 180.347656 6.914062 181.601562 7.46875 182.84375 8.058594 C 184.085938 8.644531 185.3125 9.261719 186.523438 9.910156 C 187.734375 10.554688 188.929688 11.234375 190.105469 11.9375 C 191.285156 12.644531 192.445312 13.378906 193.585938 14.140625 C 194.726562 14.90625 195.851562 15.695312 196.953125 16.515625 C 198.058594 17.332031 199.140625 18.175781 200.199219 19.046875 C 201.261719 19.917969 202.300781 20.816406 203.320312 21.738281 C 204.335938 22.660156 205.332031 23.605469 206.304688 24.578125 C 207.273438 25.550781 208.21875 26.542969 209.144531 27.5625 C 210.066406 28.578125 210.960938 29.617188 211.832031 30.679688 C 212.703125 31.742188 213.550781 32.824219 214.367188 33.925781 C 215.183594 35.03125 215.976562 36.152344 216.738281 37.292969 C 217.5 38.4375 218.234375 39.597656 218.941406 40.773438 C 219.648438 41.953125 220.324219 43.148438 220.972656 44.359375 C 221.621094 45.570312 222.238281 46.796875 222.824219 48.035156 C 223.410156 49.277344 223.96875 50.535156 224.492188 51.800781 C 225.019531 53.070312 225.511719 54.351562 225.976562 55.644531 C 226.4375 56.9375 226.867188 58.242188 227.269531 59.554688 C 227.667969 60.871094 228.03125 62.191406 228.367188 63.527344 C 228.699219 64.859375 229 66.195312 229.269531 67.542969 C 229.535156 68.890625 229.769531 70.242188 229.972656 71.601562 C 230.175781 72.960938 230.34375 74.324219 230.476562 75.691406 C 230.613281 77.058594 230.710938 78.425781 230.78125 79.796875 C 230.847656 81.167969 230.882812 82.542969 230.882812 83.914062 Z M 230.882812 83.914062 " fill-opacity="1" fill-rule="nonzero"/></g><g clip-path="url(#595010d95a)"><path fill="#4c0bd1" d="M 83.875 128.765625 C 146 128.765625 198.53125 61.367188 219.953125 67.511719 C 230.152344 70.398438 235.265625 66.535156 239.792969 62.679688 C 246.042969 57.335938 251.148438 51.992188 266.992188 64.535156 C 281.988281 76.398438 290.855469 61.777344 300.976562 47.160156 C 309.277344 35.179688 318.414062 23.199219 332.472656 25.796875 C 363.671875 31.578125 374.289062 93.203125 374.289062 93.203125 L 1.257812 93.203125 C 1.257812 93.203125 40.5625 128.765625 83.875 128.765625 " fill-opacity="1" fill-rule="nonzero"/></g><g clip-path="url(#f3a9cde63e)"><path fill="#e43397" d="M 14.296875 101.953125 C 43.542969 121.597656 82.476562 118.710938 108.464844 94.972656 C 109.117188 94.320312 109.859375 93.761719 110.511719 93.203125 L 1.257812 93.203125 L 14.296875 101.953125 M 230.480469 113.6875 C 255.8125 138.914062 295.214844 143.292969 325.390625 124.207031 L 374.289062 93.203125 L 209.523438 93.203125 C 211.011719 94.507812 212.597656 95.902344 213.992188 97.300781 L 230.480469 113.6875 M 110.511719 93.203125 L 209.523438 93.203125 C 181.207031 69.089844 139.199219 68.90625 110.511719 93.203125 " fill-opacity="1" fill-rule="nonzero"/></g><g clip-path="url(#8f88f1bf43)"><path fill="#00c4cc" d="M 131.695312 68.445312 C 137.429688 68.445312 143.355469 70.546875 149.445312 75.515625 L 149.726562 75.746094 C 135.671875 77.648438 122.027344 83.453125 110.511719 93.203125 L 94.773438 93.203125 C 105.921875 79.910156 118.300781 68.433594 131.695312 68.445312 M 1.257812 93.203125 C 1.257812 93.203125 28.566406 117.910156 62.742188 126.136719 C 57.320312 129.421875 52.058594 130.796875 47.027344 130.796875 C 20.800781 130.796875 1.257812 93.203125 1.257812 93.203125 " fill-opacity="1" fill-rule="nonzero"/></g><g clip-path="url(#1f7271632a)"><path fill="#7900ff" d="M 1.257812 93.203125 L 14.296875 101.953125 C 27.261719 110.660156 42.128906 114.945312 56.929688 114.945312 C 64.351562 114.945312 71.765625 113.863281 78.910156 111.726562 C 73.816406 117.285156 68.8125 122.140625 64.316406 125.136719 C 63.792969 125.484375 63.261719 125.820312 62.742188 126.136719 C 28.566406 117.910156 1.257812 93.203125 1.257812 93.203125 " fill-opacity="1" fill-rule="nonzero"/></g><path fill="#00c4cc" d="M 171 93.203125 L 209.523438 93.203125 C 211.011719 94.507812 212.597656 95.902344 213.992188 97.300781 L 230.480469 113.6875 C 234.222656 117.417969 238.273438 120.691406 242.558594 123.5 C 242.511719 123.519531 242.457031 123.539062 242.402344 123.550781 C 236.375 125.511719 230.832031 126.402344 225.636719 126.402344 C 204.4375 126.402344 189.023438 111.550781 170.066406 93.847656 C 170.375 93.632812 170.691406 93.417969 171 93.203125 " fill-opacity="1" fill-rule="nonzero"/><path fill="#7900ff" d="M 169.378906 93.203125 L 171 93.203125 C 170.691406 93.417969 170.375 93.632812 170.066406 93.847656 C 169.835938 93.632812 169.613281 93.417969 169.378906 93.203125 " fill-opacity="1" fill-rule="nonzero"/><g clip-path="url(#8d17cd1f8b)"><path fill="#00c4cc" d="M 343.503906 112.71875 C 330.726562 131.953125 323.460938 158.839844 303.503906 161.445312 C 302.390625 161.585938 301.328125 161.65625 300.316406 161.65625 C 288.042969 161.65625 282.667969 151.652344 277.144531 141.648438 C 275.941406 139.472656 274.738281 137.292969 273.445312 135.21875 C 277.132812 135.761719 280.851562 136.03125 284.578125 136.03125 C 298.660156 136.03125 312.824219 132.152344 325.390625 124.207031 L 343.503906 112.71875 " fill-opacity="1" fill-rule="nonzero"/></g><g clip-path="url(#ba91b48a0a)"><path fill="#cb88ff" d="M 149.726562 75.746094 C 156.878906 81.628906 163.304688 87.597656 169.378906 93.203125 L 110.511719 93.203125 C 122.027344 83.453125 135.671875 77.648438 149.726562 75.746094 M 1.257812 93.203125 L 94.773438 93.203125 C 89.714844 99.261719 84.265625 105.886719 78.910156 111.726562 C 71.765625 113.863281 64.351562 114.945312 56.929688 114.945312 C 42.128906 114.945312 27.261719 110.660156 14.296875 101.953125 L 1.257812 93.203125 M 169.378906 93.203125 L 209.523438 93.203125 L 169.378906 93.203125 M 209.523438 93.203125 L 374.289062 93.203125 C 359.945312 93.203125 350.824219 101.707031 343.503906 112.71875 L 325.390625 124.207031 C 312.824219 132.152344 298.660156 136.03125 284.578125 136.03125 C 280.851562 136.03125 277.132812 135.761719 273.445312 135.21875 C 268.824219 127.761719 263.171875 121.640625 253.121094 121.640625 C 250.046875 121.640625 246.554688 122.21875 242.558594 123.5 C 238.273438 120.691406 234.222656 117.417969 230.480469 113.6875 L 213.992188 97.300781 C 212.597656 95.902344 211.011719 94.507812 209.523438 93.203125 " fill-opacity="1" fill-rule="nonzero"/></g></svg>