<?xml version="1.0" encoding="utf-8"?>
<!-- Generator: Adobe Illustrator 26.5.0, SVG Export Plug-In . SVG Version: 6.00 Build 0)  -->
<svg version="1.1" id="Camada_1" xmlns="http://www.w3.org/2000/svg" xmlns:xlink="http://www.w3.org/1999/xlink" x="0px" y="0px"
	 viewBox="0 0 500 500" style="enable-background:new 0 0 500 500;" xml:space="preserve">
<style type="text/css">
	.st0{fill:#FFFFFF;}
</style>
<g>
	<path class="st0" d="M258.28,85.89c86.27,0.24,154.64,68.86,154.48,155.06c-0.15,86.11-69.51,154.21-156.73,153.91
		c-84.53-0.29-152.91-70.42-152.34-156.22C104.25,154,173.42,85.65,258.28,85.89z M239.08,271.22c0,6.91,0.41,11.29-0.09,15.55
		c-1.02,8.72,2.85,11.93,11.15,11.05c2.14-0.22,4.32-0.02,6.48-0.03c23.85-0.08,20.72,2.12,20.65-20.77
		c-0.04-12.57,0.26-23.28,11.13-33.68c14.16-13.55,10.13-37.97-5.01-51.17c-15.25-13.29-37.59-12.7-52.05,1.37
		c-14.2,13.82-16.27,37.97-2.14,51.66C238.15,253.88,240.49,262.65,239.08,271.22z"/>
</g>
</svg>
