<?xml version="1.0" encoding="utf-8"?>
<!-- Generator: Adobe Illustrator 26.5.0, SVG Export Plug-In . SVG Version: 6.00 Build 0)  -->
<svg version="1.1" id="Camada_1" xmlns="http://www.w3.org/2000/svg" xmlns:xlink="http://www.w3.org/1999/xlink" x="0px" y="0px"
	 viewBox="0 0 500 500" style="enable-background:new 0 0 500 500;" xml:space="preserve">
<style type="text/css">
	.st0{fill:#E1E1E1;}
</style>
<path class="st0" d="M489.15,131.53C488.77,62.18,435.32,8.25,366.79,7.54c-38.85-0.4-77.71-0.07-116.57-0.07
	c-40.02,0.01-80.04-0.5-120.05,0.12C65.06,8.61,11.37,63.27,10.93,129.42c-0.53,80.53-0.56,161.07,0.03,241.59
	c0.48,65.82,54.57,120.66,119.72,121.21c79.45,0.66,158.91,0.67,238.36-0.01c66.2-0.57,119.62-55.31,120.06-122.62
	C489.61,290.24,489.58,210.88,489.15,131.53z M386.39,231.02c-3.49,21.97-13.17,41.12-26.81,58.29
	c-28.6,36-62.77,65.77-100.17,91.99c-6.66,4.67-11.55,5.13-18.45,0.28c-37.84-26.61-72.73-56.54-101.25-93.35
	c-22.04-28.44-34.33-60.17-22.57-96.63c8.93-27.69,26.35-49.17,55.22-55.9c33.47-7.8,58.34,7.82,77.35,37.8
	c14.17-19.24,28.43-34.95,51.59-38.61C358.02,125.92,393.52,186.18,386.39,231.02z"/>
</svg>
