<?xml version="1.0" encoding="utf-8"?>
<!-- Generator: Adobe Illustrator 26.5.0, SVG Export Plug-In . SVG Version: 6.00 Build 0)  -->
<svg version="1.1" id="Camada_1" xmlns="http://www.w3.org/2000/svg" xmlns:xlink="http://www.w3.org/1999/xlink" x="0px" y="0px"
	 viewBox="0 0 500 500" style="enable-background:new 0 0 500 500;" xml:space="preserve">
<style type="text/css">
	.st0{fill:#E1E1E1;}
</style>
<path class="st0" d="M486.6,134.36c-0.37-67.69-53.25-120.33-121.06-121.03c-38.44-0.39-76.89-0.07-115.33-0.07
	c-39.59,0.01-79.19-0.49-118.77,0.12C67.03,14.38,13.91,67.73,13.47,132.3c-0.53,78.6-0.56,157.21,0.03,235.82
	c0.48,64.25,53.99,117.78,118.45,118.31c78.6,0.65,157.22,0.66,235.82-0.01c65.49-0.55,118.35-53.99,118.78-119.68
	C487.06,289.28,487.03,211.82,486.6,134.36z M360.61,242.26h-16.12v127.33c0,15.12-12.26,27.38-27.38,27.38H182.89
	c-15.12,0-27.38-12.26-27.38-27.38V242.26h-16.12c-12.75,0-19.13-15.41-10.12-24.43l110.61-110.61c5.59-5.59,14.65-5.59,20.24,0
	l110.61,110.61C379.74,226.84,373.36,242.26,360.61,242.26z"/>
</svg>
