<?xml version="1.0" encoding="utf-8"?>
<!-- Generator: Adobe Illustrator 26.5.0, SVG Export Plug-In . SVG Version: 6.00 Build 0)  -->
<svg version="1.1" id="Camada_1" xmlns="http://www.w3.org/2000/svg" xmlns:xlink="http://www.w3.org/1999/xlink" x="0px" y="0px"
	 viewBox="0 0 500 500" style="enable-background:new 0 0 500 500;" xml:space="preserve">
<style type="text/css">
	.st0{fill:#FFFFFF;}
</style>
<g>
	<path class="st0" d="M248.9,24.39c118.08-0.01,213.77,95.99,213.75,214.43c-0.02,116.85-95.81,212.97-211.49,213.65
		c-120.1,0.71-216.59-96.13-216.4-214.02C34.94,120.04,130.54,24.39,248.9,24.39z M394.63,369.76
		c39.29-39.45,66.62-115.98,41.11-193.27C409.44,96.81,331.56,36.56,237.16,41.81c-83.87,4.67-157.56,63.24-179.28,147.6
		c-20.34,79,12.29,153.32,54.57,190.21c0.08-1.26,0.15-2.4,0.23-3.53c1.44-21.38,5.57-42.04,16.58-60.78
		c10.54-17.95,25.83-29.59,46.3-34.11c2.45-0.54,4.61-0.98,7.21,1.05c8.91,6.93,17.66,14.38,27.52,19.69
		c24.34,13.13,49.89,15.76,75.98,4.96c14.5-6,26.47-15.63,37.06-27.02c2.07-2.23,4.02-3.06,6.82-1.94
		c6.31,2.51,13.08,4.23,18.87,7.62c21.84,12.8,33.87,32.94,40.18,56.77C391.61,351.37,392.88,360.7,394.63,369.76z"/>
	<path class="st0" d="M348.47,188.43c0.01,48.26-36.73,89.86-84.86,95.13c-42.78,4.69-76.69-11-98.92-47.99
		c-27.69-46.08-9.28-106.78,38.74-131.52c49.29-25.4,107.36-7.9,134.24,40.44C344.58,156.92,348.46,172.72,348.47,188.43z"/>
</g>
</svg>
