<?xml version="1.0" encoding="utf-8"?>
<!-- Generator: Adobe Illustrator 26.5.0, SVG Export Plug-In . SVG Version: 6.00 Build 0)  -->
<svg version="1.1" id="Camada_1" xmlns="http://www.w3.org/2000/svg" xmlns:xlink="http://www.w3.org/1999/xlink" x="0px" y="0px"
	 viewBox="0 0 500 500" style="enable-background:new 0 0 500 500;" xml:space="preserve">
<style type="text/css">
	.st0{fill:#E1E1E1;}
</style>
<g>
	<circle class="st0" cx="213.62" cy="195.8" r="75.06"/>
	<path class="st0" d="M250,13.07L250,13.07C119.15,13.07,13.07,119.15,13.07,250v0c0,130.85,106.08,236.93,236.93,236.93h0
		c130.85,0,236.93-106.08,236.93-236.93v0C486.93,119.15,380.85,13.07,250,13.07z M350.92,384.16L350.92,384.16
		c-9.04,6.33-21.5,4.13-27.83-4.91l-66.73-95.31C243.28,290.38,228.57,294,213,294c-54.28,0-98.28-44-98.28-98.28
		s44-98.28,98.28-98.28c54.28,0,98.28,44,98.28,98.28c0,24.26-8.8,46.46-23.36,63.61l67.92,97
		C362.16,365.37,359.96,377.83,350.92,384.16z"/>
</g>
</svg>
