<?xml version="1.0" encoding="utf-8"?>
<!-- Generator: Adobe Illustrator 26.5.0, SVG Export Plug-In . SVG Version: 6.00 Build 0)  -->
<svg version="1.1" id="Camada_1" xmlns="http://www.w3.org/2000/svg" xmlns:xlink="http://www.w3.org/1999/xlink" x="0px" y="0px"
	 viewBox="0 0 1024 768" style="enable-background:new 0 0 1024 768;" xml:space="preserve">
<style type="text/css">
	.st0{fill:url(#SVGID_1_);}
	.st1{fill:url(#SVGID_00000084524883270061330250000003354426695671052977_);}
	.st2{fill:url(#SVGID_00000107573473661806833290000000084321129389859499_);}
	.st3{fill:url(#SVGID_00000057111378787566110450000006638667652605141146_);}
	.st4{fill:url(#SVGID_00000024001293253989478290000012944788300290071960_);}
	.st5{fill:url(#SVGID_00000030454908681975042720000005658740890550321797_);}
</style>
<linearGradient id="SVGID_1_" gradientUnits="userSpaceOnUse" x1="-438.12" y1="587.28" x2="-78.0448" y2="587.28">
	<stop  offset="0" style="stop-color:#00C4CC"/>
	<stop  offset="0.9706" style="stop-color:#EE3EC9"/>
</linearGradient>
<path class="st0" d="M-438.12,634.14c0,0,60.45-84.8,180.91-46.86c0,0,155.25,49.65,179.17-176.3v352.6h-360.08V634.14z"/>
<linearGradient id="SVGID_00000113347107065236001400000002268412108539972995_" gradientUnits="userSpaceOnUse" x1="-438.12" y1="564.24" x2="-78.12" y2="564.24">
	<stop  offset="0" style="stop-color:#DB00FF;stop-opacity:0.25"/>
	<stop  offset="0.9706" style="stop-color:#4C0BD1"/>
</linearGradient>
<path style="fill:url(#SVGID_00000113347107065236001400000002268412108539972995_);" d="M-438.12,583.36
	c0,0,100.68-94.84,170.67,18.02C-173.94,752.16-78.12,364.9-78.12,364.9v398.68h-360V583.36z"/>
<linearGradient id="SVGID_00000130632710453412625260000017969688397053435279_" gradientUnits="userSpaceOnUse" x1="0" y1="591.7" x2="1024" y2="591.7">
	<stop  offset="0" style="stop-color:#00C4CC"/>
	<stop  offset="0.9706" style="stop-color:#EE3EC9"/>
</linearGradient>
<path style="fill:url(#SVGID_00000130632710453412625260000017969688397053435279_);" d="M0,638.56c0,0,171.9-84.8,514.47-46.86
	c0,0,441.51,49.65,509.53-176.3V768H0V638.56z"/>
<linearGradient id="SVGID_00000142139603220035420420000011281705626450377396_" gradientUnits="userSpaceOnUse" x1="0" y1="568.66" x2="1023.7862" y2="568.66">
	<stop  offset="0" style="stop-color:#DB00FF;stop-opacity:0.25"/>
	<stop  offset="0.9706" style="stop-color:#4C0BD1"/>
</linearGradient>
<path style="fill:url(#SVGID_00000142139603220035420420000011281705626450377396_);" d="M0,587.78c0,0,286.32-94.84,485.36,18.02
	c265.92,150.79,538.43-236.48,538.43-236.48V768H0V587.78z"/>
<linearGradient id="SVGID_00000051353364449285562020000001080706069228626337_" gradientUnits="userSpaceOnUse" x1="1094.24" y1="591.7" x2="3014.24" y2="591.7">
	<stop  offset="0" style="stop-color:#00C4CC"/>
	<stop  offset="0.9706" style="stop-color:#EE3EC9"/>
</linearGradient>
<path style="fill:url(#SVGID_00000051353364449285562020000001080706069228626337_);" d="M1094.24,638.56
	c0,0,322.32-84.8,964.64-46.86c0,0,827.83,49.65,955.36-176.3V768h-1920V638.56z"/>
<linearGradient id="SVGID_00000026165826127629356800000005555417924584518295_" gradientUnits="userSpaceOnUse" x1="1094.24" y1="568.66" x2="3013.8391" y2="568.66">
	<stop  offset="0" style="stop-color:#DB00FF;stop-opacity:0.25"/>
	<stop  offset="0.9706" style="stop-color:#4C0BD1"/>
</linearGradient>
<path style="fill:url(#SVGID_00000026165826127629356800000005555417924584518295_);" d="M1094.24,587.78
	c0,0,536.85-94.84,910.04,18.02c498.6,150.79,1009.56-236.48,1009.56-236.48V768h-1919.6V587.78z"/>
</svg>
